<?xml version="1.0" encoding="utf-8"?>
<svg width="2175.721" height="256.959" viewBox="-109.935 8018 2169.592 171.155" xmlns="http://www.w3.org/2000/svg">
  <g data-name="footer_white">
    <path d="M 17.017 77.537 C 104.127 70.694 249.662 -21.018 415.262 4.459 C 545.328 21.22 809.08 161.6 1124.593 161.343 C 1440.106 161.085 1859.403 -120.244 2088.694 90.276 C 2086.107 94.647 2112.863 91.426 1956.502 96.066 C 1941.933 96.498 1873.957 77.513 1821.992 74.95 C 1600.36 64.02 1356.555 172.29 1112.737 167.202 C 981.853 164.471 912.248 160.725 786.371 134.923 C 741.501 125.725 687.598 113.848 643.458 101.616 C 603.24 90.471 561.363 82.66 521.256 74.372 C 484.869 66.853 447.907 58.251 411.84 54.373 C 352.094 47.949 289.003 45.716 231.036 51.213 C 167.642 57.225 93.635 74.235 45.822 98.009 C -54.678 147.981 -13.601 79.943 17.017 77.537 Z" fill-rule="evenodd" fill="url(&quot;#a&quot;)" transform="translate(-79.281 8018)" data-name="Path 9" style="fill-rule: evenodd;"/>
    <path d="M 48.305 54.893 C 135.415 48.049 256.844 -10.046 413.058 1.352 C 575.976 18.113 849.115 137.04 1164.628 136.782 C 1470.535 136.532 1836.374 -99.389 2085.56 66.336 C 2093.383 71.539 2075.008 69.911 2075.008 69.911 L 2064.345 70.013 C 2064.345 70.013 2031.954 71.424 2026.232 70.558 C 2015.235 68.894 1995.741 73.945 1987.065 71.699 C 1923.45 55.229 1857.418 47.048 1801.146 49.893 C 1738.724 53.048 1736.646 56.036 1662.862 64.736 C 1635.339 67.981 1558.579 84.096 1549.325 85.579 C 1541.68 86.804 1301.655 142.498 1208.376 141.905 C 1062.57 140.978 930.318 125.719 780.75 100.031 C 755.085 95.623 715.54 85.614 696.432 78.761 C 615.111 49.595 443.901 29.178 443.901 29.178 C 443.901 29.178 286.216 6.137 171.512 41.49 C 135.121 52.706 85.363 70.844 85.363 70.844 C 85.363 70.844 2.389 110.672 25.834 75.323 L 48.305 54.893 Z" fill-rule="evenodd" fill="url(&quot;#b&quot;)" transform="translate(-119.315 8042.561)" data-name="Path 9" style="fill-rule: evenodd; opacity: 0.6;"/>
  </g>
  <defs>
    <linearGradient x1="-.212" y1="-.873" x2="1.092" y2="1.056" id="a">
      <stop stop-color="#c262d7" offset="0"/>
      <stop stop-color="#67008f" offset="1"/>
    </linearGradient>
    <linearGradient x1="1.261" y1="-.195" x2="0" y2=".903" id="b">
      <stop stop-color="#f093fb" offset="0"/>
      <stop stop-color="#67008f" offset="1"/>
    </linearGradient>
  </defs>
</svg>