<svg id="مشاورههههه" xmlns="http://www.w3.org/2000/svg" width="136.2" height="138" viewBox="0 0 136.2 138">
  <path id="Path_414" data-name="Path 414" d="M0,138V0H136.2V138Z" fill="none"/>
  <g id="Group_8" data-name="Group 8" transform="translate(6.652 3.44)">
    <path id="Path_415" data-name="Path 415" d="M62.973,3.44a7.058,7.058,0,0,0-7.021,7.021V36.2a7.058,7.058,0,0,0,7.021,7.021h5.147a11.324,11.324,0,0,1,.43,2.048,11.882,11.882,0,0,1-.649,6.262,2.338,2.338,0,0,0,2.093,3.392c4.808,0,8.173-3.666,10.394-6.847a22.572,22.572,0,0,0,2.669-4.854h19.7a7.058,7.058,0,0,0,7.021-7.021V10.461a7.058,7.058,0,0,0-7.021-7.021Zm0,4.68h39.784a2.3,2.3,0,0,1,2.34,2.34V36.2a2.3,2.3,0,0,1-2.34,2.34H81.694a2.324,2.324,0,0,0-2.167,1.472,30.774,30.774,0,0,1-2.962,5.375,15.994,15.994,0,0,1-3.245,3.465,21.31,21.31,0,0,0-.128-4.169,25.93,25.93,0,0,0-.978-4.543,2.339,2.339,0,0,0-2.221-1.6H62.973a2.3,2.3,0,0,1-2.34-2.34V10.461a2.3,2.3,0,0,1,2.34-2.34ZM48.922,12.874h-.174c-8.95.667-14.672,5.43-16.9,12.067-2.121,6.308-1.417,14.069.558,22.241a7.377,7.377,0,0,0-2.2,5.394A10.138,10.138,0,0,0,32.65,59.6a6.16,6.16,0,0,0,2.523,1.353,21.8,21.8,0,0,0,1.417,6.765,14.325,14.325,0,0,0,2.971,4.361c0,2.989.018,5.3,0,8.227-.914,1.965-2.8,3.556-5.659,5.055C30.932,86.93,27.11,88.337,23.28,90.1a33.93,33.93,0,0,0-10.842,7.213,21.172,21.172,0,0,0-5.64,13.63l-.146,2.5h93.92l-.146-2.5a21.177,21.177,0,0,0-5.649-13.639,34.158,34.158,0,0,0-10.86-7.213c-3.849-1.773-7.661-3.172-10.632-4.744-2.852-1.5-4.726-3.09-5.622-5.037-.027-3.145,0-5.467,0-8.419a15.939,15.939,0,0,0,2.962-3.977,13.968,13.968,0,0,0,1.719-5.969,2.351,2.351,0,0,0-.722-1.7,2.383,2.383,0,0,0-1.737-.649,4.671,4.671,0,0,1-4.571-4.671v-4.68a4.69,4.69,0,0,0-4.68-4.68h-2.34c-2.578,0-7.021-2.34-7.021-7.021V15.863a2.355,2.355,0,0,0-.411-2.093,2.327,2.327,0,0,0-1.938-.9Zm21.071,2.267v4.68H86.375v-4.68Zm21.062,0v4.68h7.021v-4.68Zm-21.062,11.7v4.68h7.021v-4.68Zm11.7,0v4.68H98.076v-4.68Z" transform="translate(-6.652 -3.44)" fill="rgba(255,255,255,0.9)"/>
  </g>
</svg>
