<svg id="مدرککک" xmlns="http://www.w3.org/2000/svg" width="93.8" height="143.6" viewBox="0 0 93.8 143.6">
  <path id="Path_418" data-name="Path 418" d="M0,143.6V0H93.8V143.6Z" fill="none"/>
  <g id="Group_10" data-name="Group 10" transform="translate(10.704 19.812)">
    <path id="Path_419" data-name="Path 419" d="M29.964,13.76A2.449,2.449,0,0,0,27.52,16.2v97.76a2.443,2.443,0,0,0,2.444,2.444H47.072V121.3a2.446,2.446,0,0,0,3.9,1.986l8.325-6.263,8.325,6.263a2.446,2.446,0,0,0,3.9-1.986v-4.888h36.66a2.437,2.437,0,0,0,2.444-2.444V16.2a2.443,2.443,0,0,0-2.444-2.444ZM44.628,43.088h48.88v4.888H44.628Zm0,14.664h48.88V62.64H44.628ZM59.292,77.533a3.466,3.466,0,0,1,3.437,2.444c.248.248.21.229.458.229a3.628,3.628,0,0,1,1.909-.458,3.718,3.718,0,0,1,2.291.764,3.336,3.336,0,0,1,.917,3.9c0,.248.305.22.305.458a3.66,3.66,0,0,1,2.9,2.979,3.608,3.608,0,0,1-1.68,3.666V92.2a3.532,3.532,0,0,1-2.9,5.652,3.332,3.332,0,0,1-.535,0c0,.248-.286.22-.535.458a3.133,3.133,0,0,1-2.139,3.208,2.239,2.239,0,0,1-1.222.229,4.068,4.068,0,0,1-2.75-1.222h-.917a4.126,4.126,0,0,1-3.972.993,3.462,3.462,0,0,1-2.139-3.208c0-.248-.286-.22-.535-.458a3.332,3.332,0,0,1-.535,0,3.7,3.7,0,0,1-3.131-1.757,3.294,3.294,0,0,1,.229-3.9V91.51a3.608,3.608,0,0,1-1.68-3.666,3.649,3.649,0,0,1,2.9-2.979c0-.248.306-.22.306-.458a3.339,3.339,0,0,1,.917-3.9,3.718,3.718,0,0,1,2.291-.764,3.628,3.628,0,0,1,1.909.458c.248-.248.21-.229.458-.229a3.684,3.684,0,0,1,3.437-2.444ZM51.96,105.41a8.789,8.789,0,0,0,1.146.611,2.148,2.148,0,0,0,.229.076,8.7,8.7,0,0,0,2.75.458,8.389,8.389,0,0,0,3.131-.611,8.58,8.58,0,0,0,3.284.687,6.844,6.844,0,0,0,3.055-.611,10.149,10.149,0,0,0,1.069-.535v10.922l-5.881-4.43a2.435,2.435,0,0,0-2.9,0l-5.881,4.43Z" transform="translate(-27.52 -13.76)" fill="rgba(255,255,255,0.9)"/>
  </g>
</svg>
