<svg id="یبلفغغعتهع" xmlns="http://www.w3.org/2000/svg" width="148" height="124.634" viewBox="0 0 148 124.634">
  <path id="Path_422" data-name="Path 422" d="M0,124.634V0H148V124.634Z" fill="none"/>
  <g id="Group_12" data-name="Group 12" transform="translate(24.08 6.88)">
    <path id="Path_423" data-name="Path 423" d="M24.08,6.88v93.958h9.167v9.167h55v6.875h34.375V77.922H106.58V16.047H97.413V6.88Zm4.583,4.583H92.83v4.583H33.247V96.255H28.663Zm23.852,13.75a2.931,2.931,0,0,1,2.565,1.262c3.476,0,2.573,4.846,2.045,6.432a2.249,2.249,0,0,1,.434,1.459,2.189,2.189,0,0,1-.98,1.661,3.89,3.89,0,0,1-1.692,2.69,22.825,22.825,0,0,0,0,2.377c.99,2.658,7.588,1.91,7.9,7.036H42.413c.307-5.126,6.9-4.38,7.891-7.036a22.825,22.825,0,0,0,0-2.377,4.362,4.362,0,0,1-1.741-2.69,2.063,2.063,0,0,1-.985-1.849,1.86,1.86,0,0,1,.5-1.267c-.974-3.733-.556-7.607,4.44-7.7ZM76.788,29.8H95.122a2.292,2.292,0,1,1,0,4.583H76.788a2.292,2.292,0,0,1,0-4.583Zm0,11.458H95.122a2.292,2.292,0,0,1,0,4.583H76.788a2.292,2.292,0,0,1,0-4.583ZM44.705,64.172H76.788a2.292,2.292,0,1,1,0,4.583H44.705a2.292,2.292,0,1,1,0-4.583Zm43.542,0h6.875a2.292,2.292,0,0,1,0,4.583H88.247a2.292,2.292,0,1,1,0-4.583ZM44.705,77.922H69.913a2.292,2.292,0,0,1,0,4.583H44.705a2.292,2.292,0,0,1,0-4.583ZM92.83,82.505h25.208V89.38H92.83ZM44.705,91.672H76.788a2.292,2.292,0,1,1,0,4.583H44.705a2.292,2.292,0,1,1,0-4.583ZM92.83,93.963h25.208v6.875H92.83Zm0,11.458h25.208V112.3H92.83Z" transform="translate(-24.08 -6.88)" fill="rgba(255,255,255,0.9)"/>
  </g>
</svg>
